<mxfile host="65bd71144e">
    <diagram id="nKQMyj5D2cVVsMJy41xH" name="ページ1">
        <mxGraphModel dx="713" dy="430" grid="1" gridSize="10" guides="1" tooltips="1" connect="1" arrows="1" fold="1" page="1" pageScale="1" pageWidth="1169" pageHeight="827" math="0" shadow="0">
            <root>
                <mxCell id="0"/>
                <mxCell id="1" parent="0"/>
                <mxCell id="3" value="&lt;span style=&quot;font-size: 26px&quot;&gt;・発注TOP画面&lt;/span&gt;" style="text;html=1;resizable=0;autosize=1;align=center;verticalAlign=middle;points=[];fillColor=none;strokeColor=none;rounded=0;" parent="1" vertex="1">
                    <mxGeometry x="70" y="10" width="200" height="20" as="geometry"/>
                </mxCell>
                <mxCell id="4" value="" style="whiteSpace=wrap;html=1;aspect=fixed;fontSize=26;" parent="1" vertex="1">
                    <mxGeometry x="40" y="40" width="280" height="280" as="geometry"/>
                </mxCell>
                <mxCell id="5" value="" style="whiteSpace=wrap;html=1;aspect=fixed;fontSize=26;" parent="1" vertex="1">
                    <mxGeometry x="40" y="520" width="280" height="280" as="geometry"/>
                </mxCell>
                <mxCell id="6" value="" style="whiteSpace=wrap;html=1;aspect=fixed;fontSize=26;" parent="1" vertex="1">
                    <mxGeometry x="400" y="520" width="280" height="280" as="geometry"/>
                </mxCell>
                <mxCell id="7" value="" style="whiteSpace=wrap;html=1;aspect=fixed;fontSize=26;" parent="1" vertex="1">
                    <mxGeometry x="400" y="40" width="280" height="280" as="geometry"/>
                </mxCell>
                <mxCell id="8" value="" style="whiteSpace=wrap;html=1;aspect=fixed;fontSize=26;" parent="1" vertex="1">
                    <mxGeometry x="1169" y="520" width="280" height="280" as="geometry"/>
                </mxCell>
                <mxCell id="9" value="" style="whiteSpace=wrap;html=1;aspect=fixed;fontSize=26;" parent="1" vertex="1">
                    <mxGeometry x="1169" y="40" width="280" height="280" as="geometry"/>
                </mxCell>
                <mxCell id="10" value="" style="whiteSpace=wrap;html=1;aspect=fixed;fontSize=26;" parent="1" vertex="1">
                    <mxGeometry x="790" y="520" width="280" height="280" as="geometry"/>
                </mxCell>
                <mxCell id="11" value="" style="whiteSpace=wrap;html=1;aspect=fixed;fontSize=26;" parent="1" vertex="1">
                    <mxGeometry x="790" y="40" width="280" height="280" as="geometry"/>
                </mxCell>
                <mxCell id="13" value="&lt;font style=&quot;font-size: 10px&quot;&gt;© 2022 All Rights Reserved.&lt;/font&gt;" style="rounded=0;whiteSpace=wrap;html=1;fontSize=26;align=center;" parent="1" vertex="1">
                    <mxGeometry x="40" y="300" width="280" height="20" as="geometry"/>
                </mxCell>
                <mxCell id="24" value="" style="rounded=0;whiteSpace=wrap;html=1;fontSize=26;" parent="1" vertex="1">
                    <mxGeometry x="400" y="40" width="280" height="40" as="geometry"/>
                </mxCell>
                <mxCell id="25" value="&lt;div&gt;&lt;span style=&quot;font-size: x-small&quot;&gt;logo&lt;/span&gt;&lt;/div&gt;" style="ellipse;whiteSpace=wrap;html=1;fontSize=40;align=center;" parent="1" vertex="1">
                    <mxGeometry x="400" y="40" width="50" height="40" as="geometry"/>
                </mxCell>
                <mxCell id="27" value="&lt;font style=&quot;font-size: 7px&quot;&gt;ログイン&lt;/font&gt;" style="rounded=1;whiteSpace=wrap;html=1;fontSize=15;" parent="1" vertex="1">
                    <mxGeometry x="590" y="50" width="40" height="20" as="geometry"/>
                </mxCell>
                <mxCell id="28" value="&lt;div&gt;&lt;span style=&quot;font-size: 7px&quot;&gt;アカウント&lt;/span&gt;&lt;/div&gt;&lt;font style=&quot;font-size: 7px ; line-height: 1&quot;&gt;&lt;div&gt;&lt;span&gt;登録&lt;/span&gt;&lt;/div&gt;&lt;/font&gt;" style="rounded=1;whiteSpace=wrap;html=1;fontSize=15;align=center;" parent="1" vertex="1">
                    <mxGeometry x="630" y="50" width="40" height="20" as="geometry"/>
                </mxCell>
                <mxCell id="29" value="" style="rounded=0;whiteSpace=wrap;html=1;fontSize=26;" parent="1" vertex="1">
                    <mxGeometry x="790" y="40" width="280" height="40" as="geometry"/>
                </mxCell>
                <mxCell id="30" value="&lt;div&gt;&lt;span style=&quot;font-size: x-small&quot;&gt;logo&lt;/span&gt;&lt;/div&gt;" style="ellipse;whiteSpace=wrap;html=1;fontSize=40;align=center;" parent="1" vertex="1">
                    <mxGeometry x="790" y="40" width="50" height="40" as="geometry"/>
                </mxCell>
                <mxCell id="39" value="&lt;font style=&quot;font-size: 10px&quot;&gt;© 2022 All Rights Reserved.&lt;/font&gt;" style="rounded=0;whiteSpace=wrap;html=1;fontSize=26;align=center;" parent="1" vertex="1">
                    <mxGeometry x="40" y="780" width="280" height="20" as="geometry"/>
                </mxCell>
                <mxCell id="40" value="&lt;font style=&quot;font-size: 10px&quot;&gt;© 2022 All Rights Reserved.&lt;/font&gt;" style="rounded=0;whiteSpace=wrap;html=1;fontSize=26;align=center;" parent="1" vertex="1">
                    <mxGeometry x="790" y="780" width="280" height="20" as="geometry"/>
                </mxCell>
                <mxCell id="41" value="&lt;font style=&quot;font-size: 10px&quot;&gt;© 2022 All Rights Reserved.&lt;/font&gt;" style="rounded=0;whiteSpace=wrap;html=1;fontSize=26;align=center;" parent="1" vertex="1">
                    <mxGeometry x="400" y="780" width="280" height="20" as="geometry"/>
                </mxCell>
                <mxCell id="42" value="&lt;font style=&quot;font-size: 10px&quot;&gt;© 2022 All Rights Reserved.&lt;/font&gt;" style="rounded=0;whiteSpace=wrap;html=1;fontSize=26;align=center;" parent="1" vertex="1">
                    <mxGeometry x="1169" y="780" width="280" height="20" as="geometry"/>
                </mxCell>
                <mxCell id="43" value="&lt;font style=&quot;font-size: 10px&quot;&gt;© 2022 All Rights Reserved.&lt;/font&gt;" style="rounded=0;whiteSpace=wrap;html=1;fontSize=26;align=center;" parent="1" vertex="1">
                    <mxGeometry x="1169" y="300" width="280" height="20" as="geometry"/>
                </mxCell>
                <mxCell id="44" value="&lt;font style=&quot;font-size: 10px&quot;&gt;© 2022 All Rights Reserved.&lt;/font&gt;" style="rounded=0;whiteSpace=wrap;html=1;fontSize=26;align=center;" parent="1" vertex="1">
                    <mxGeometry x="790" y="300" width="280" height="20" as="geometry"/>
                </mxCell>
                <mxCell id="45" value="&lt;font style=&quot;font-size: 10px&quot;&gt;© 2022 All Rights Reserved.&lt;/font&gt;" style="rounded=0;whiteSpace=wrap;html=1;fontSize=26;align=center;" parent="1" vertex="1">
                    <mxGeometry x="400" y="300" width="280" height="20" as="geometry"/>
                </mxCell>
                <mxCell id="53" value="&lt;div&gt;&lt;span style=&quot;font-size: x-small&quot;&gt;イラスト&lt;/span&gt;&lt;/div&gt;" style="ellipse;whiteSpace=wrap;html=1;fontSize=40;align=center;" parent="1" vertex="1">
                    <mxGeometry x="430" y="140" width="70" height="60" as="geometry"/>
                </mxCell>
                <mxCell id="54" value="" style="rounded=1;whiteSpace=wrap;html=1;fontSize=10;" parent="1" vertex="1">
                    <mxGeometry x="545" y="123" width="85" height="10" as="geometry"/>
                </mxCell>
                <mxCell id="55" value="" style="rounded=1;whiteSpace=wrap;html=1;fontSize=10;" parent="1" vertex="1">
                    <mxGeometry x="545" y="150" width="85" height="10" as="geometry"/>
                </mxCell>
                <mxCell id="56" value="" style="rounded=1;whiteSpace=wrap;html=1;fontSize=10;" parent="1" vertex="1">
                    <mxGeometry x="545" y="175" width="85" height="10" as="geometry"/>
                </mxCell>
                <mxCell id="57" value="" style="rounded=1;whiteSpace=wrap;html=1;fontSize=10;" parent="1" vertex="1">
                    <mxGeometry x="545" y="200" width="85" height="10" as="geometry"/>
                </mxCell>
                <mxCell id="58" value="名前" style="text;html=1;resizable=0;autosize=1;align=center;verticalAlign=middle;points=[];fillColor=none;strokeColor=none;rounded=0;fontSize=10;" parent="1" vertex="1">
                    <mxGeometry x="530" y="107" width="40" height="20" as="geometry"/>
                </mxCell>
                <mxCell id="59" value="メールアドレス" style="text;html=1;resizable=0;autosize=1;align=center;verticalAlign=middle;points=[];fillColor=none;strokeColor=none;rounded=0;fontSize=10;" parent="1" vertex="1">
                    <mxGeometry x="530" y="133" width="90" height="20" as="geometry"/>
                </mxCell>
                <mxCell id="60" value="パスワード" style="text;html=1;resizable=0;autosize=1;align=center;verticalAlign=middle;points=[];fillColor=none;strokeColor=none;rounded=0;fontSize=10;" parent="1" vertex="1">
                    <mxGeometry x="530" y="160" width="70" height="20" as="geometry"/>
                </mxCell>
                <mxCell id="61" value="パスワード（確認用）" style="text;html=1;resizable=0;autosize=1;align=center;verticalAlign=middle;points=[];fillColor=none;strokeColor=none;rounded=0;fontSize=10;" parent="1" vertex="1">
                    <mxGeometry x="530" y="185" width="120" height="20" as="geometry"/>
                </mxCell>
                <mxCell id="62" value="&lt;font style=&quot;font-size: 26px&quot;&gt;・アカウント登録画面&lt;/font&gt;" style="text;html=1;resizable=0;autosize=1;align=center;verticalAlign=middle;points=[];fillColor=none;strokeColor=none;rounded=0;" parent="1" vertex="1">
                    <mxGeometry x="400" y="10" width="280" height="20" as="geometry"/>
                </mxCell>
                <mxCell id="63" value="" style="whiteSpace=wrap;html=1;aspect=fixed;fontSize=26;" parent="1" vertex="1">
                    <mxGeometry x="1570" y="40" width="280" height="280" as="geometry"/>
                </mxCell>
                <mxCell id="122" value="&lt;span style=&quot;font-size: 26px&quot;&gt;・商品詳細画面&lt;/span&gt;" style="text;html=1;resizable=0;autosize=1;align=center;verticalAlign=middle;points=[];fillColor=none;strokeColor=none;rounded=0;" parent="1" vertex="1">
                    <mxGeometry x="70" y="490" width="200" height="20" as="geometry"/>
                </mxCell>
                <mxCell id="123" value="&lt;font style=&quot;font-size: 7px&quot;&gt;ログイン&lt;/font&gt;" style="rounded=1;whiteSpace=wrap;html=1;fontSize=15;" parent="1" vertex="1">
                    <mxGeometry x="980" y="50" width="40" height="20" as="geometry"/>
                </mxCell>
                <mxCell id="124" value="&lt;div&gt;&lt;span style=&quot;font-size: 7px&quot;&gt;アカウント&lt;/span&gt;&lt;/div&gt;&lt;font style=&quot;font-size: 7px ; line-height: 1&quot;&gt;&lt;div&gt;&lt;span&gt;登録&lt;/span&gt;&lt;/div&gt;&lt;/font&gt;" style="rounded=1;whiteSpace=wrap;html=1;fontSize=15;align=center;" parent="1" vertex="1">
                    <mxGeometry x="1020" y="50" width="40" height="20" as="geometry"/>
                </mxCell>
                <mxCell id="125" value="&lt;font style=&quot;font-size: 26px&quot;&gt;・ログイン画面&lt;/font&gt;" style="text;html=1;resizable=0;autosize=1;align=center;verticalAlign=middle;points=[];fillColor=none;strokeColor=none;rounded=0;" parent="1" vertex="1">
                    <mxGeometry x="830" y="10" width="200" height="20" as="geometry"/>
                </mxCell>
                <mxCell id="131" value="&lt;font size=&quot;1&quot;&gt;イラスト&lt;/font&gt;" style="ellipse;whiteSpace=wrap;html=1;fontSize=40;align=center;" parent="1" vertex="1">
                    <mxGeometry x="820" y="141" width="70" height="60" as="geometry"/>
                </mxCell>
                <mxCell id="132" value="" style="rounded=1;whiteSpace=wrap;html=1;fontSize=10;" parent="1" vertex="1">
                    <mxGeometry x="935" y="151" width="85" height="10" as="geometry"/>
                </mxCell>
                <mxCell id="133" value="メールアドレス" style="text;html=1;resizable=0;autosize=1;align=center;verticalAlign=middle;points=[];fillColor=none;strokeColor=none;rounded=0;fontSize=10;" parent="1" vertex="1">
                    <mxGeometry x="920" y="134" width="90" height="20" as="geometry"/>
                </mxCell>
                <mxCell id="134" value="パスワード" style="text;html=1;resizable=0;autosize=1;align=center;verticalAlign=middle;points=[];fillColor=none;strokeColor=none;rounded=0;fontSize=10;" parent="1" vertex="1">
                    <mxGeometry x="920" y="161" width="70" height="20" as="geometry"/>
                </mxCell>
                <mxCell id="136" value="" style="rounded=1;whiteSpace=wrap;html=1;fontSize=10;" parent="1" vertex="1">
                    <mxGeometry x="935" y="178" width="85" height="10" as="geometry"/>
                </mxCell>
                <mxCell id="137" value="sign up" style="rounded=1;whiteSpace=wrap;html=1;fontSize=7;" parent="1" vertex="1">
                    <mxGeometry x="570" y="220" width="30" height="20" as="geometry"/>
                </mxCell>
                <mxCell id="138" value="log in" style="rounded=1;whiteSpace=wrap;html=1;fontSize=7;" parent="1" vertex="1">
                    <mxGeometry x="962.5" y="195" width="30" height="20" as="geometry"/>
                </mxCell>
                <mxCell id="139" value="パスワードをお忘れですか？" style="text;html=1;resizable=0;autosize=1;align=center;verticalAlign=middle;points=[];fillColor=none;strokeColor=none;rounded=0;fontSize=7;fontStyle=4" parent="1" vertex="1">
                    <mxGeometry x="920" y="220" width="110" height="10" as="geometry"/>
                </mxCell>
                <mxCell id="150" value="" style="group" parent="1" vertex="1" connectable="0">
                    <mxGeometry x="1570" y="40" width="280" height="40" as="geometry"/>
                </mxCell>
                <mxCell id="151" value="" style="rounded=0;whiteSpace=wrap;html=1;fontSize=26;" parent="150" vertex="1">
                    <mxGeometry width="280" height="40" as="geometry"/>
                </mxCell>
                <mxCell id="340" value="" style="group" vertex="1" connectable="0" parent="150">
                    <mxGeometry width="280" height="40" as="geometry"/>
                </mxCell>
                <mxCell id="341" value="" style="rounded=0;whiteSpace=wrap;html=1;fontSize=26;" vertex="1" parent="340">
                    <mxGeometry width="280" height="40" as="geometry"/>
                </mxCell>
                <mxCell id="342" value="&lt;div&gt;&lt;span style=&quot;font-size: x-small&quot;&gt;logo&lt;/span&gt;&lt;/div&gt;" style="ellipse;whiteSpace=wrap;html=1;fontSize=40;align=center;" vertex="1" parent="340">
                    <mxGeometry width="50" height="40" as="geometry"/>
                </mxCell>
                <mxCell id="343" value="&lt;font style=&quot;font-size: 7px&quot;&gt;発注履歴&lt;/font&gt;" style="rounded=1;whiteSpace=wrap;html=1;fontSize=7;" vertex="1" parent="340">
                    <mxGeometry x="150" y="10" width="40" height="20" as="geometry"/>
                </mxCell>
                <mxCell id="344" value="&lt;font style=&quot;font-size: 7px;&quot;&gt;管理&lt;/font&gt;" style="rounded=1;whiteSpace=wrap;html=1;fontSize=7;" vertex="1" parent="340">
                    <mxGeometry x="190" y="10" width="40" height="20" as="geometry"/>
                </mxCell>
                <mxCell id="345" value="&lt;font style=&quot;font-size: 7px;&quot;&gt;ログアウト&lt;/font&gt;" style="rounded=1;whiteSpace=wrap;html=1;fontSize=7;" vertex="1" parent="340">
                    <mxGeometry x="230" y="10" width="40" height="20" as="geometry"/>
                </mxCell>
                <mxCell id="346" value="&lt;span style=&quot;font-size: 7px;&quot;&gt;TOP&lt;/span&gt;" style="rounded=1;whiteSpace=wrap;html=1;fontSize=7;" vertex="1" parent="340">
                    <mxGeometry x="110" y="10" width="40" height="20" as="geometry"/>
                </mxCell>
                <mxCell id="158" value="" style="group" parent="1" vertex="1" connectable="0">
                    <mxGeometry x="790" y="520" width="280" height="40" as="geometry"/>
                </mxCell>
                <mxCell id="159" value="" style="rounded=0;whiteSpace=wrap;html=1;fontSize=26;" parent="158" vertex="1">
                    <mxGeometry width="280" height="40" as="geometry"/>
                </mxCell>
                <mxCell id="490" value="" style="group" vertex="1" connectable="0" parent="158">
                    <mxGeometry width="280" height="40" as="geometry"/>
                </mxCell>
                <mxCell id="491" value="" style="rounded=0;whiteSpace=wrap;html=1;fontSize=26;" vertex="1" parent="490">
                    <mxGeometry width="280" height="40" as="geometry"/>
                </mxCell>
                <mxCell id="492" value="&lt;div&gt;&lt;span style=&quot;font-size: x-small&quot;&gt;logo&lt;/span&gt;&lt;/div&gt;" style="ellipse;whiteSpace=wrap;html=1;fontSize=40;align=center;" vertex="1" parent="490">
                    <mxGeometry width="50" height="40" as="geometry"/>
                </mxCell>
                <mxCell id="493" value="&lt;font style=&quot;font-size: 7px&quot;&gt;発注履歴&lt;/font&gt;" style="rounded=1;whiteSpace=wrap;html=1;fontSize=7;" vertex="1" parent="490">
                    <mxGeometry x="150" y="10" width="40" height="20" as="geometry"/>
                </mxCell>
                <mxCell id="494" value="&lt;font style=&quot;font-size: 7px;&quot;&gt;管理&lt;/font&gt;" style="rounded=1;whiteSpace=wrap;html=1;fontSize=7;" vertex="1" parent="490">
                    <mxGeometry x="190" y="10" width="40" height="20" as="geometry"/>
                </mxCell>
                <mxCell id="495" value="&lt;font style=&quot;font-size: 7px;&quot;&gt;ログアウト&lt;/font&gt;" style="rounded=1;whiteSpace=wrap;html=1;fontSize=7;" vertex="1" parent="490">
                    <mxGeometry x="230" y="10" width="40" height="20" as="geometry"/>
                </mxCell>
                <mxCell id="496" value="&lt;span style=&quot;font-size: 7px;&quot;&gt;TOP&lt;/span&gt;" style="rounded=1;whiteSpace=wrap;html=1;fontSize=7;" vertex="1" parent="490">
                    <mxGeometry x="110" y="10" width="40" height="20" as="geometry"/>
                </mxCell>
                <mxCell id="166" value="&lt;span style=&quot;font-size: 26px&quot;&gt;・発注履歴一覧画面&lt;/span&gt;" style="text;html=1;resizable=0;autosize=1;align=center;verticalAlign=middle;points=[];fillColor=none;strokeColor=none;rounded=0;" parent="1" vertex="1">
                    <mxGeometry x="405" y="490" width="250" height="20" as="geometry"/>
                </mxCell>
                <mxCell id="263" value="&lt;span style=&quot;font-size: 26px&quot;&gt;・発注詳細画面&lt;/span&gt;" style="text;html=1;resizable=0;autosize=1;align=center;verticalAlign=middle;points=[];fillColor=none;strokeColor=none;rounded=0;" parent="1" vertex="1">
                    <mxGeometry x="820" y="490" width="200" height="20" as="geometry"/>
                </mxCell>
                <mxCell id="264" value="戻る" style="ellipse;whiteSpace=wrap;html=1;aspect=fixed;fontSize=7;" parent="1" vertex="1">
                    <mxGeometry x="910" y="730" width="40" height="40" as="geometry"/>
                </mxCell>
                <mxCell id="272" value="&lt;span style=&quot;font-size: 26px&quot;&gt;・発注確認画面&lt;/span&gt;" style="text;html=1;resizable=0;autosize=1;align=center;verticalAlign=middle;points=[];fillColor=none;strokeColor=none;rounded=0;" parent="1" vertex="1">
                    <mxGeometry x="1210" y="490" width="200" height="20" as="geometry"/>
                </mxCell>
                <mxCell id="279" value="" style="rounded=1;whiteSpace=wrap;html=1;fontSize=4;" parent="1" vertex="1">
                    <mxGeometry x="1240" y="585" width="120" height="25" as="geometry"/>
                </mxCell>
                <mxCell id="280" value="" style="rounded=1;whiteSpace=wrap;html=1;fontSize=4;" parent="1" vertex="1">
                    <mxGeometry x="1240" y="615" width="120" height="25" as="geometry"/>
                </mxCell>
                <mxCell id="281" value="" style="rounded=1;whiteSpace=wrap;html=1;fontSize=4;" parent="1" vertex="1">
                    <mxGeometry x="1240" y="647" width="120" height="23" as="geometry"/>
                </mxCell>
                <mxCell id="282" value="&lt;font style=&quot;font-size: 7px&quot;&gt;発注&lt;br&gt;&lt;/font&gt;" style="ellipse;whiteSpace=wrap;html=1;aspect=fixed;fontSize=4;" parent="1" vertex="1">
                    <mxGeometry x="1285" y="722" width="35" height="35" as="geometry"/>
                </mxCell>
                <mxCell id="283" value="商品" style="text;html=1;resizable=0;autosize=1;align=center;verticalAlign=middle;points=[];fillColor=none;strokeColor=none;rounded=0;fontSize=7;" parent="1" vertex="1">
                    <mxGeometry x="1205" y="590" width="30" height="10" as="geometry"/>
                </mxCell>
                <mxCell id="284" value="合計金額" style="text;html=1;resizable=0;autosize=1;align=center;verticalAlign=middle;points=[];fillColor=none;strokeColor=none;rounded=0;fontSize=7;" parent="1" vertex="1">
                    <mxGeometry x="1200" y="615" width="40" height="10" as="geometry"/>
                </mxCell>
                <mxCell id="285" value="配送先" style="text;html=1;resizable=0;autosize=1;align=center;verticalAlign=middle;points=[];fillColor=none;strokeColor=none;rounded=0;fontSize=7;" parent="1" vertex="1">
                    <mxGeometry x="1200" y="655" width="40" height="10" as="geometry"/>
                </mxCell>
                <mxCell id="286" value="&lt;font style=&quot;font-size: 26px&quot;&gt;・アカウント詳細画面&lt;/font&gt;" style="text;html=1;resizable=0;autosize=1;align=center;verticalAlign=middle;points=[];fillColor=none;strokeColor=none;rounded=0;" parent="1" vertex="1">
                    <mxGeometry x="1160" y="10" width="280" height="20" as="geometry"/>
                </mxCell>
                <mxCell id="287" value="&lt;font style=&quot;font-size: 26px&quot;&gt;・アカウント編集画面&lt;/font&gt;" style="text;html=1;resizable=0;autosize=1;align=center;verticalAlign=middle;points=[];fillColor=none;strokeColor=none;rounded=0;" parent="1" vertex="1">
                    <mxGeometry x="1565" y="10" width="280" height="20" as="geometry"/>
                </mxCell>
                <mxCell id="288" value="編集" style="ellipse;whiteSpace=wrap;html=1;aspect=fixed;fontSize=7;" parent="1" vertex="1">
                    <mxGeometry x="1250" y="178" width="30" height="30" as="geometry"/>
                </mxCell>
                <mxCell id="289" value="退会" style="ellipse;whiteSpace=wrap;html=1;aspect=fixed;fontSize=7;" parent="1" vertex="1">
                    <mxGeometry x="1315" y="178" width="30" height="30" as="geometry"/>
                </mxCell>
                <mxCell id="290" value="" style="rounded=1;whiteSpace=wrap;html=1;fontSize=10;" parent="1" vertex="1">
                    <mxGeometry x="1255" y="113" width="85" height="10" as="geometry"/>
                </mxCell>
                <mxCell id="291" value="" style="rounded=1;whiteSpace=wrap;html=1;fontSize=10;" parent="1" vertex="1">
                    <mxGeometry x="1255" y="140" width="85" height="10" as="geometry"/>
                </mxCell>
                <mxCell id="293" value="名前" style="text;html=1;resizable=0;autosize=1;align=center;verticalAlign=middle;points=[];fillColor=none;strokeColor=none;rounded=0;fontSize=10;" parent="1" vertex="1">
                    <mxGeometry x="1240" y="97" width="40" height="20" as="geometry"/>
                </mxCell>
                <mxCell id="294" value="メールアドレス" style="text;html=1;resizable=0;autosize=1;align=center;verticalAlign=middle;points=[];fillColor=none;strokeColor=none;rounded=0;fontSize=10;" parent="1" vertex="1">
                    <mxGeometry x="1240" y="123" width="90" height="20" as="geometry"/>
                </mxCell>
                <mxCell id="297" value="アカウント情報" style="text;html=1;resizable=0;autosize=1;align=center;verticalAlign=middle;points=[];fillColor=none;strokeColor=none;rounded=0;fontSize=10;" parent="1" vertex="1">
                    <mxGeometry x="1250" y="87" width="90" height="20" as="geometry"/>
                </mxCell>
                <mxCell id="309" value="更新" style="ellipse;whiteSpace=wrap;html=1;aspect=fixed;fontSize=7;" parent="1" vertex="1">
                    <mxGeometry x="1665" y="250" width="30" height="30" as="geometry"/>
                </mxCell>
                <mxCell id="310" value="戻る" style="ellipse;whiteSpace=wrap;html=1;aspect=fixed;fontSize=7;" parent="1" vertex="1">
                    <mxGeometry x="1724" y="250" width="30" height="30" as="geometry"/>
                </mxCell>
                <mxCell id="311" value="" style="rounded=1;whiteSpace=wrap;html=1;fontSize=10;" parent="1" vertex="1">
                    <mxGeometry x="1665" y="113" width="85" height="10" as="geometry"/>
                </mxCell>
                <mxCell id="312" value="" style="rounded=1;whiteSpace=wrap;html=1;fontSize=10;" parent="1" vertex="1">
                    <mxGeometry x="1665" y="140" width="85" height="10" as="geometry"/>
                </mxCell>
                <mxCell id="313" value="" style="rounded=1;whiteSpace=wrap;html=1;fontSize=10;" parent="1" vertex="1">
                    <mxGeometry x="1665" y="165" width="85" height="10" as="geometry"/>
                </mxCell>
                <mxCell id="314" value="名前" style="text;html=1;resizable=0;autosize=1;align=center;verticalAlign=middle;points=[];fillColor=none;strokeColor=none;rounded=0;fontSize=10;" parent="1" vertex="1">
                    <mxGeometry x="1650" y="97" width="40" height="20" as="geometry"/>
                </mxCell>
                <mxCell id="315" value="メールアドレス" style="text;html=1;resizable=0;autosize=1;align=center;verticalAlign=middle;points=[];fillColor=none;strokeColor=none;rounded=0;fontSize=10;" parent="1" vertex="1">
                    <mxGeometry x="1650" y="123" width="90" height="20" as="geometry"/>
                </mxCell>
                <mxCell id="316" value="パスワード" style="text;html=1;resizable=0;autosize=1;align=center;verticalAlign=middle;points=[];fillColor=none;strokeColor=none;rounded=0;fontSize=10;" parent="1" vertex="1">
                    <mxGeometry x="1650" y="150" width="70" height="20" as="geometry"/>
                </mxCell>
                <mxCell id="317" value="パスワード（確認用）" style="text;html=1;resizable=0;autosize=1;align=center;verticalAlign=middle;points=[];fillColor=none;strokeColor=none;rounded=0;fontSize=10;" parent="1" vertex="1">
                    <mxGeometry x="1650" y="175" width="120" height="20" as="geometry"/>
                </mxCell>
                <mxCell id="318" value="アカウント編集" style="text;html=1;resizable=0;autosize=1;align=center;verticalAlign=middle;points=[];fillColor=none;strokeColor=none;rounded=0;fontSize=10;" parent="1" vertex="1">
                    <mxGeometry x="1660" y="83" width="90" height="20" as="geometry"/>
                </mxCell>
                <mxCell id="319" value="" style="rounded=1;whiteSpace=wrap;html=1;fontSize=10;" parent="1" vertex="1">
                    <mxGeometry x="1665" y="195" width="85" height="10" as="geometry"/>
                </mxCell>
                <mxCell id="322" value="現在のパスワード" style="text;html=1;resizable=0;autosize=1;align=center;verticalAlign=middle;points=[];fillColor=none;strokeColor=none;rounded=0;fontSize=10;" parent="1" vertex="1">
                    <mxGeometry x="1650" y="205" width="100" height="20" as="geometry"/>
                </mxCell>
                <mxCell id="323" value="" style="rounded=1;whiteSpace=wrap;html=1;fontSize=10;" parent="1" vertex="1">
                    <mxGeometry x="1665" y="225" width="85" height="10" as="geometry"/>
                </mxCell>
                <mxCell id="324" value="&lt;font style=&quot;font-size: 10px&quot;&gt;© 2022 All Rights Reserved.&lt;/font&gt;" style="rounded=0;whiteSpace=wrap;html=1;fontSize=26;align=center;" parent="1" vertex="1">
                    <mxGeometry x="1570" y="300" width="280" height="20" as="geometry"/>
                </mxCell>
                <mxCell id="325" value="" style="group" vertex="1" connectable="0" parent="1">
                    <mxGeometry x="40" y="40" width="280" height="40" as="geometry"/>
                </mxCell>
                <mxCell id="12" value="" style="rounded=0;whiteSpace=wrap;html=1;fontSize=26;" parent="325" vertex="1">
                    <mxGeometry width="280" height="40" as="geometry"/>
                </mxCell>
                <mxCell id="15" value="&lt;div&gt;&lt;span style=&quot;font-size: x-small&quot;&gt;logo&lt;/span&gt;&lt;/div&gt;" style="ellipse;whiteSpace=wrap;html=1;fontSize=40;align=center;" parent="325" vertex="1">
                    <mxGeometry width="50" height="40" as="geometry"/>
                </mxCell>
                <mxCell id="20" value="&lt;font style=&quot;font-size: 7px&quot;&gt;発注履歴&lt;/font&gt;" style="rounded=1;whiteSpace=wrap;html=1;fontSize=7;" parent="325" vertex="1">
                    <mxGeometry x="150" y="10" width="40" height="20" as="geometry"/>
                </mxCell>
                <mxCell id="22" value="&lt;font style=&quot;font-size: 7px;&quot;&gt;管理&lt;/font&gt;" style="rounded=1;whiteSpace=wrap;html=1;fontSize=7;" parent="325" vertex="1">
                    <mxGeometry x="190" y="10" width="40" height="20" as="geometry"/>
                </mxCell>
                <mxCell id="23" value="&lt;font style=&quot;font-size: 7px;&quot;&gt;ログアウト&lt;/font&gt;" style="rounded=1;whiteSpace=wrap;html=1;fontSize=7;" parent="325" vertex="1">
                    <mxGeometry x="230" y="10" width="40" height="20" as="geometry"/>
                </mxCell>
                <mxCell id="65" value="&lt;span style=&quot;font-size: 7px;&quot;&gt;TOP&lt;/span&gt;" style="rounded=1;whiteSpace=wrap;html=1;fontSize=7;" parent="325" vertex="1">
                    <mxGeometry x="110" y="10" width="40" height="20" as="geometry"/>
                </mxCell>
                <mxCell id="326" value="" style="group" vertex="1" connectable="0" parent="1">
                    <mxGeometry x="40" y="520" width="280" height="40" as="geometry"/>
                </mxCell>
                <mxCell id="327" value="" style="rounded=0;whiteSpace=wrap;html=1;fontSize=26;" vertex="1" parent="326">
                    <mxGeometry width="280" height="40" as="geometry"/>
                </mxCell>
                <mxCell id="328" value="&lt;div&gt;&lt;span style=&quot;font-size: x-small&quot;&gt;logo&lt;/span&gt;&lt;/div&gt;" style="ellipse;whiteSpace=wrap;html=1;fontSize=40;align=center;" vertex="1" parent="326">
                    <mxGeometry width="50" height="40" as="geometry"/>
                </mxCell>
                <mxCell id="329" value="&lt;font style=&quot;font-size: 7px&quot;&gt;発注履歴&lt;/font&gt;" style="rounded=1;whiteSpace=wrap;html=1;fontSize=7;" vertex="1" parent="326">
                    <mxGeometry x="150" y="10" width="40" height="20" as="geometry"/>
                </mxCell>
                <mxCell id="330" value="&lt;font style=&quot;font-size: 7px;&quot;&gt;管理&lt;/font&gt;" style="rounded=1;whiteSpace=wrap;html=1;fontSize=7;" vertex="1" parent="326">
                    <mxGeometry x="190" y="10" width="40" height="20" as="geometry"/>
                </mxCell>
                <mxCell id="331" value="&lt;font style=&quot;font-size: 7px;&quot;&gt;ログアウト&lt;/font&gt;" style="rounded=1;whiteSpace=wrap;html=1;fontSize=7;" vertex="1" parent="326">
                    <mxGeometry x="230" y="10" width="40" height="20" as="geometry"/>
                </mxCell>
                <mxCell id="332" value="&lt;span style=&quot;font-size: 7px;&quot;&gt;TOP&lt;/span&gt;" style="rounded=1;whiteSpace=wrap;html=1;fontSize=7;" vertex="1" parent="326">
                    <mxGeometry x="110" y="10" width="40" height="20" as="geometry"/>
                </mxCell>
                <mxCell id="333" value="" style="group" vertex="1" connectable="0" parent="1">
                    <mxGeometry x="400" y="520" width="280" height="40" as="geometry"/>
                </mxCell>
                <mxCell id="334" value="" style="rounded=0;whiteSpace=wrap;html=1;fontSize=26;" vertex="1" parent="333">
                    <mxGeometry width="280" height="40" as="geometry"/>
                </mxCell>
                <mxCell id="335" value="&lt;div&gt;&lt;span style=&quot;font-size: x-small&quot;&gt;logo&lt;/span&gt;&lt;/div&gt;" style="ellipse;whiteSpace=wrap;html=1;fontSize=40;align=center;" vertex="1" parent="333">
                    <mxGeometry width="50" height="40" as="geometry"/>
                </mxCell>
                <mxCell id="336" value="&lt;font style=&quot;font-size: 7px&quot;&gt;発注履歴&lt;/font&gt;" style="rounded=1;whiteSpace=wrap;html=1;fontSize=7;" vertex="1" parent="333">
                    <mxGeometry x="150" y="10" width="40" height="20" as="geometry"/>
                </mxCell>
                <mxCell id="337" value="&lt;font style=&quot;font-size: 7px;&quot;&gt;管理&lt;/font&gt;" style="rounded=1;whiteSpace=wrap;html=1;fontSize=7;" vertex="1" parent="333">
                    <mxGeometry x="190" y="10" width="40" height="20" as="geometry"/>
                </mxCell>
                <mxCell id="338" value="&lt;font style=&quot;font-size: 7px;&quot;&gt;ログアウト&lt;/font&gt;" style="rounded=1;whiteSpace=wrap;html=1;fontSize=7;" vertex="1" parent="333">
                    <mxGeometry x="230" y="10" width="40" height="20" as="geometry"/>
                </mxCell>
                <mxCell id="339" value="&lt;span style=&quot;font-size: 7px;&quot;&gt;TOP&lt;/span&gt;" style="rounded=1;whiteSpace=wrap;html=1;fontSize=7;" vertex="1" parent="333">
                    <mxGeometry x="110" y="10" width="40" height="20" as="geometry"/>
                </mxCell>
                <mxCell id="347" value="" style="group" vertex="1" connectable="0" parent="1">
                    <mxGeometry x="1169" y="40" width="280" height="40" as="geometry"/>
                </mxCell>
                <mxCell id="348" value="" style="rounded=0;whiteSpace=wrap;html=1;fontSize=26;" vertex="1" parent="347">
                    <mxGeometry width="280" height="40" as="geometry"/>
                </mxCell>
                <mxCell id="349" value="&lt;div&gt;&lt;span style=&quot;font-size: x-small&quot;&gt;logo&lt;/span&gt;&lt;/div&gt;" style="ellipse;whiteSpace=wrap;html=1;fontSize=40;align=center;" vertex="1" parent="347">
                    <mxGeometry width="50" height="40" as="geometry"/>
                </mxCell>
                <mxCell id="350" value="&lt;font style=&quot;font-size: 7px&quot;&gt;発注履歴&lt;/font&gt;" style="rounded=1;whiteSpace=wrap;html=1;fontSize=7;" vertex="1" parent="347">
                    <mxGeometry x="150" y="10" width="40" height="20" as="geometry"/>
                </mxCell>
                <mxCell id="351" value="&lt;font style=&quot;font-size: 7px;&quot;&gt;管理&lt;/font&gt;" style="rounded=1;whiteSpace=wrap;html=1;fontSize=7;" vertex="1" parent="347">
                    <mxGeometry x="190" y="10" width="40" height="20" as="geometry"/>
                </mxCell>
                <mxCell id="352" value="&lt;font style=&quot;font-size: 7px;&quot;&gt;ログアウト&lt;/font&gt;" style="rounded=1;whiteSpace=wrap;html=1;fontSize=7;" vertex="1" parent="347">
                    <mxGeometry x="230" y="10" width="40" height="20" as="geometry"/>
                </mxCell>
                <mxCell id="353" value="&lt;span style=&quot;font-size: 7px;&quot;&gt;TOP&lt;/span&gt;" style="rounded=1;whiteSpace=wrap;html=1;fontSize=7;" vertex="1" parent="347">
                    <mxGeometry x="110" y="10" width="40" height="20" as="geometry"/>
                </mxCell>
                <mxCell id="354" value="" style="rounded=1;whiteSpace=wrap;html=1;fontSize=10;" vertex="1" parent="1">
                    <mxGeometry x="1255" y="163.5" width="85" height="10" as="geometry"/>
                </mxCell>
                <mxCell id="355" value="店舗名" style="text;html=1;resizable=0;autosize=1;align=center;verticalAlign=middle;points=[];fillColor=none;strokeColor=none;rounded=0;fontSize=10;" vertex="1" parent="1">
                    <mxGeometry x="1245" y="146" width="50" height="20" as="geometry"/>
                </mxCell>
                <mxCell id="356" value="&lt;font style=&quot;font-size: 10px&quot;&gt;注文数　○○　合計　○○円　　　　発注に進む&lt;/font&gt;" style="rounded=0;whiteSpace=wrap;html=1;fontSize=7;" vertex="1" parent="1">
                    <mxGeometry x="40" y="270" width="280" height="30" as="geometry"/>
                </mxCell>
                <mxCell id="358" value="" style="rounded=1;whiteSpace=wrap;html=1;fontSize=10;" vertex="1" parent="1">
                    <mxGeometry x="60" y="97" width="70" height="43" as="geometry"/>
                </mxCell>
                <mxCell id="359" value="&lt;font style=&quot;font-size: 9px&quot;&gt;入れる&lt;/font&gt;" style="ellipse;whiteSpace=wrap;html=1;fontSize=10;" vertex="1" parent="1">
                    <mxGeometry x="100" y="123" width="30" height="17" as="geometry"/>
                </mxCell>
                <mxCell id="361" value="" style="html=1;whiteSpace=wrap;shape=isoCube2;backgroundOutline=1;isoAngle=15;fontSize=10;" vertex="1" parent="1">
                    <mxGeometry x="66" y="103.5" width="30" height="30" as="geometry"/>
                </mxCell>
                <mxCell id="362" value="&lt;font style=&quot;font-size: 9px&quot;&gt;詳細&lt;/font&gt;" style="ellipse;whiteSpace=wrap;html=1;fontSize=10;" vertex="1" parent="1">
                    <mxGeometry x="100" y="103" width="30" height="17" as="geometry"/>
                </mxCell>
                <mxCell id="363" value="" style="rounded=1;whiteSpace=wrap;html=1;fontSize=10;" vertex="1" parent="1">
                    <mxGeometry x="140" y="97" width="70" height="43" as="geometry"/>
                </mxCell>
                <mxCell id="364" value="&lt;font style=&quot;font-size: 9px&quot;&gt;入れる&lt;/font&gt;" style="ellipse;whiteSpace=wrap;html=1;fontSize=10;" vertex="1" parent="1">
                    <mxGeometry x="180" y="123" width="30" height="17" as="geometry"/>
                </mxCell>
                <mxCell id="365" value="" style="html=1;whiteSpace=wrap;shape=isoCube2;backgroundOutline=1;isoAngle=15;fontSize=10;" vertex="1" parent="1">
                    <mxGeometry x="146" y="103.5" width="30" height="30" as="geometry"/>
                </mxCell>
                <mxCell id="366" value="&lt;font style=&quot;font-size: 9px&quot;&gt;詳細&lt;/font&gt;" style="ellipse;whiteSpace=wrap;html=1;fontSize=10;" vertex="1" parent="1">
                    <mxGeometry x="180" y="103" width="30" height="17" as="geometry"/>
                </mxCell>
                <mxCell id="367" value="" style="rounded=1;whiteSpace=wrap;html=1;fontSize=10;" vertex="1" parent="1">
                    <mxGeometry x="220" y="96.5" width="70" height="43" as="geometry"/>
                </mxCell>
                <mxCell id="368" value="&lt;font style=&quot;font-size: 9px&quot;&gt;入れる&lt;/font&gt;" style="ellipse;whiteSpace=wrap;html=1;fontSize=10;" vertex="1" parent="1">
                    <mxGeometry x="260" y="122.5" width="30" height="17" as="geometry"/>
                </mxCell>
                <mxCell id="369" value="" style="html=1;whiteSpace=wrap;shape=isoCube2;backgroundOutline=1;isoAngle=15;fontSize=10;" vertex="1" parent="1">
                    <mxGeometry x="226" y="103" width="30" height="30" as="geometry"/>
                </mxCell>
                <mxCell id="370" value="&lt;font style=&quot;font-size: 9px&quot;&gt;詳細&lt;/font&gt;" style="ellipse;whiteSpace=wrap;html=1;fontSize=10;" vertex="1" parent="1">
                    <mxGeometry x="260" y="102.5" width="30" height="17" as="geometry"/>
                </mxCell>
                <mxCell id="371" value="" style="rounded=1;whiteSpace=wrap;html=1;fontSize=10;" vertex="1" parent="1">
                    <mxGeometry x="60" y="152" width="70" height="43" as="geometry"/>
                </mxCell>
                <mxCell id="372" value="&lt;font style=&quot;font-size: 9px&quot;&gt;入れる&lt;/font&gt;" style="ellipse;whiteSpace=wrap;html=1;fontSize=10;" vertex="1" parent="1">
                    <mxGeometry x="100" y="178" width="30" height="17" as="geometry"/>
                </mxCell>
                <mxCell id="373" value="" style="html=1;whiteSpace=wrap;shape=isoCube2;backgroundOutline=1;isoAngle=15;fontSize=10;" vertex="1" parent="1">
                    <mxGeometry x="66" y="158.5" width="30" height="30" as="geometry"/>
                </mxCell>
                <mxCell id="374" value="&lt;font style=&quot;font-size: 9px&quot;&gt;詳細&lt;/font&gt;" style="ellipse;whiteSpace=wrap;html=1;fontSize=10;" vertex="1" parent="1">
                    <mxGeometry x="100" y="158" width="30" height="17" as="geometry"/>
                </mxCell>
                <mxCell id="375" value="" style="rounded=1;whiteSpace=wrap;html=1;fontSize=10;" vertex="1" parent="1">
                    <mxGeometry x="140" y="152" width="70" height="43" as="geometry"/>
                </mxCell>
                <mxCell id="376" value="&lt;font style=&quot;font-size: 9px&quot;&gt;入れる&lt;/font&gt;" style="ellipse;whiteSpace=wrap;html=1;fontSize=10;" vertex="1" parent="1">
                    <mxGeometry x="180" y="178" width="30" height="17" as="geometry"/>
                </mxCell>
                <mxCell id="377" value="" style="html=1;whiteSpace=wrap;shape=isoCube2;backgroundOutline=1;isoAngle=15;fontSize=10;" vertex="1" parent="1">
                    <mxGeometry x="146" y="158.5" width="30" height="30" as="geometry"/>
                </mxCell>
                <mxCell id="378" value="&lt;font style=&quot;font-size: 9px&quot;&gt;詳細&lt;/font&gt;" style="ellipse;whiteSpace=wrap;html=1;fontSize=10;" vertex="1" parent="1">
                    <mxGeometry x="180" y="158" width="30" height="17" as="geometry"/>
                </mxCell>
                <mxCell id="379" value="" style="rounded=1;whiteSpace=wrap;html=1;fontSize=10;" vertex="1" parent="1">
                    <mxGeometry x="220" y="152" width="70" height="43" as="geometry"/>
                </mxCell>
                <mxCell id="380" value="&lt;font style=&quot;font-size: 9px&quot;&gt;入れる&lt;/font&gt;" style="ellipse;whiteSpace=wrap;html=1;fontSize=10;" vertex="1" parent="1">
                    <mxGeometry x="260" y="178" width="30" height="17" as="geometry"/>
                </mxCell>
                <mxCell id="381" value="" style="html=1;whiteSpace=wrap;shape=isoCube2;backgroundOutline=1;isoAngle=15;fontSize=10;" vertex="1" parent="1">
                    <mxGeometry x="226" y="158.5" width="30" height="30" as="geometry"/>
                </mxCell>
                <mxCell id="382" value="&lt;font style=&quot;font-size: 9px&quot;&gt;詳細&lt;/font&gt;" style="ellipse;whiteSpace=wrap;html=1;fontSize=10;" vertex="1" parent="1">
                    <mxGeometry x="260" y="158" width="30" height="17" as="geometry"/>
                </mxCell>
                <mxCell id="383" value="" style="rounded=1;whiteSpace=wrap;html=1;fontSize=10;" vertex="1" parent="1">
                    <mxGeometry x="60" y="207" width="70" height="43" as="geometry"/>
                </mxCell>
                <mxCell id="384" value="&lt;font style=&quot;font-size: 9px&quot;&gt;入れる&lt;/font&gt;" style="ellipse;whiteSpace=wrap;html=1;fontSize=10;" vertex="1" parent="1">
                    <mxGeometry x="100" y="233" width="30" height="17" as="geometry"/>
                </mxCell>
                <mxCell id="385" value="" style="html=1;whiteSpace=wrap;shape=isoCube2;backgroundOutline=1;isoAngle=15;fontSize=10;" vertex="1" parent="1">
                    <mxGeometry x="66" y="213.5" width="30" height="30" as="geometry"/>
                </mxCell>
                <mxCell id="386" value="&lt;font style=&quot;font-size: 9px&quot;&gt;詳細&lt;/font&gt;" style="ellipse;whiteSpace=wrap;html=1;fontSize=10;" vertex="1" parent="1">
                    <mxGeometry x="100" y="213" width="30" height="17" as="geometry"/>
                </mxCell>
                <mxCell id="387" value="" style="rounded=1;whiteSpace=wrap;html=1;fontSize=10;" vertex="1" parent="1">
                    <mxGeometry x="140" y="207" width="70" height="43" as="geometry"/>
                </mxCell>
                <mxCell id="388" value="&lt;font style=&quot;font-size: 9px&quot;&gt;入れる&lt;/font&gt;" style="ellipse;whiteSpace=wrap;html=1;fontSize=10;" vertex="1" parent="1">
                    <mxGeometry x="180" y="233" width="30" height="17" as="geometry"/>
                </mxCell>
                <mxCell id="389" value="" style="html=1;whiteSpace=wrap;shape=isoCube2;backgroundOutline=1;isoAngle=15;fontSize=10;" vertex="1" parent="1">
                    <mxGeometry x="146" y="213.5" width="30" height="30" as="geometry"/>
                </mxCell>
                <mxCell id="390" value="&lt;font style=&quot;font-size: 9px&quot;&gt;詳細&lt;/font&gt;" style="ellipse;whiteSpace=wrap;html=1;fontSize=10;" vertex="1" parent="1">
                    <mxGeometry x="180" y="213" width="30" height="17" as="geometry"/>
                </mxCell>
                <mxCell id="391" value="" style="rounded=1;whiteSpace=wrap;html=1;fontSize=10;" vertex="1" parent="1">
                    <mxGeometry x="220" y="207" width="70" height="43" as="geometry"/>
                </mxCell>
                <mxCell id="392" value="&lt;font style=&quot;font-size: 9px&quot;&gt;入れる&lt;/font&gt;" style="ellipse;whiteSpace=wrap;html=1;fontSize=10;" vertex="1" parent="1">
                    <mxGeometry x="260" y="233" width="30" height="17" as="geometry"/>
                </mxCell>
                <mxCell id="393" value="" style="html=1;whiteSpace=wrap;shape=isoCube2;backgroundOutline=1;isoAngle=15;fontSize=10;" vertex="1" parent="1">
                    <mxGeometry x="226" y="213.5" width="30" height="30" as="geometry"/>
                </mxCell>
                <mxCell id="394" value="&lt;font style=&quot;font-size: 9px&quot;&gt;詳細&lt;/font&gt;" style="ellipse;whiteSpace=wrap;html=1;fontSize=10;" vertex="1" parent="1">
                    <mxGeometry x="260" y="213" width="30" height="17" as="geometry"/>
                </mxCell>
                <mxCell id="399" value="" style="html=1;whiteSpace=wrap;shape=isoCube2;backgroundOutline=1;isoAngle=15;fontSize=9;" vertex="1" parent="1">
                    <mxGeometry x="66" y="600" width="90" height="100" as="geometry"/>
                </mxCell>
                <mxCell id="400" value="戻る" style="ellipse;whiteSpace=wrap;html=1;aspect=fixed;fontSize=9;" vertex="1" parent="1">
                    <mxGeometry x="164.5" y="730" width="31" height="31" as="geometry"/>
                </mxCell>
                <mxCell id="401" value="商品A" style="rounded=0;whiteSpace=wrap;html=1;fontSize=9;" vertex="1" parent="1">
                    <mxGeometry x="180" y="593" width="104" height="22" as="geometry"/>
                </mxCell>
                <mxCell id="402" value="1,200円" style="rounded=0;whiteSpace=wrap;html=1;fontSize=9;" vertex="1" parent="1">
                    <mxGeometry x="180" y="655" width="104" height="22" as="geometry"/>
                </mxCell>
                <mxCell id="403" value="在庫数：6点" style="rounded=0;whiteSpace=wrap;html=1;fontSize=9;" vertex="1" parent="1">
                    <mxGeometry x="180" y="688" width="104" height="22" as="geometry"/>
                </mxCell>
                <mxCell id="404" value="使いやすい工具です。" style="rounded=0;whiteSpace=wrap;html=1;fontSize=9;" vertex="1" parent="1">
                    <mxGeometry x="180" y="625" width="104" height="22" as="geometry"/>
                </mxCell>
                <mxCell id="457" value="発注履歴" style="shape=table;startSize=30;container=1;collapsible=0;childLayout=tableLayout;fontSize=9;" vertex="1" parent="1">
                    <mxGeometry x="400" y="560" width="280" height="220" as="geometry"/>
                </mxCell>
                <mxCell id="458" value="" style="shape=partialRectangle;collapsible=0;dropTarget=0;pointerEvents=0;fillColor=none;top=0;left=0;bottom=0;right=0;points=[[0,0.5],[1,0.5]];portConstraint=eastwest;fontSize=9;" vertex="1" parent="457">
                    <mxGeometry y="30" width="280" height="38" as="geometry"/>
                </mxCell>
                <mxCell id="459" value="注文日" style="shape=partialRectangle;html=1;whiteSpace=wrap;connectable=0;overflow=hidden;fillColor=none;top=0;left=0;bottom=0;right=0;pointerEvents=1;fontSize=9;" vertex="1" parent="458">
                    <mxGeometry width="30" height="38" as="geometry">
                        <mxRectangle width="30" height="38" as="alternateBounds"/>
                    </mxGeometry>
                </mxCell>
                <mxCell id="460" value="注文品" style="shape=partialRectangle;html=1;whiteSpace=wrap;connectable=0;overflow=hidden;fillColor=none;top=0;left=0;bottom=0;right=0;pointerEvents=1;fontSize=9;" vertex="1" parent="458">
                    <mxGeometry x="30" width="130" height="38" as="geometry">
                        <mxRectangle width="130" height="38" as="alternateBounds"/>
                    </mxGeometry>
                </mxCell>
                <mxCell id="461" value="" style="shape=partialRectangle;html=1;whiteSpace=wrap;connectable=0;overflow=hidden;fillColor=none;top=0;left=0;bottom=0;right=0;pointerEvents=1;fontSize=9;" vertex="1" parent="458">
                    <mxGeometry x="160" width="60" height="38" as="geometry">
                        <mxRectangle width="60" height="38" as="alternateBounds"/>
                    </mxGeometry>
                </mxCell>
                <mxCell id="462" value="詳細" style="shape=partialRectangle;html=1;whiteSpace=wrap;connectable=0;overflow=hidden;fillColor=none;top=0;left=0;bottom=0;right=0;pointerEvents=1;fontSize=9;" vertex="1" parent="458">
                    <mxGeometry x="220" width="30" height="38" as="geometry">
                        <mxRectangle width="30" height="38" as="alternateBounds"/>
                    </mxGeometry>
                </mxCell>
                <mxCell id="463" value="" style="shape=partialRectangle;html=1;whiteSpace=wrap;connectable=0;overflow=hidden;fillColor=none;top=0;left=0;bottom=0;right=0;pointerEvents=1;fontSize=9;" vertex="1" parent="458">
                    <mxGeometry x="250" width="30" height="38" as="geometry">
                        <mxRectangle width="30" height="38" as="alternateBounds"/>
                    </mxGeometry>
                </mxCell>
                <mxCell id="464" value="" style="shape=partialRectangle;collapsible=0;dropTarget=0;pointerEvents=0;fillColor=none;top=0;left=0;bottom=0;right=0;points=[[0,0.5],[1,0.5]];portConstraint=eastwest;fontSize=9;" vertex="1" parent="457">
                    <mxGeometry y="68" width="280" height="38" as="geometry"/>
                </mxCell>
                <mxCell id="465" value="6/10" style="shape=partialRectangle;html=1;whiteSpace=wrap;connectable=0;overflow=hidden;fillColor=none;top=0;left=0;bottom=0;right=0;pointerEvents=1;fontSize=9;" vertex="1" parent="464">
                    <mxGeometry width="30" height="38" as="geometry">
                        <mxRectangle width="30" height="38" as="alternateBounds"/>
                    </mxGeometry>
                </mxCell>
                <mxCell id="466" value="商品A×２、商品B×３" style="shape=partialRectangle;html=1;whiteSpace=wrap;connectable=0;overflow=hidden;fillColor=none;top=0;left=0;bottom=0;right=0;pointerEvents=1;fontSize=9;" vertex="1" parent="464">
                    <mxGeometry x="30" width="130" height="38" as="geometry">
                        <mxRectangle width="130" height="38" as="alternateBounds"/>
                    </mxGeometry>
                </mxCell>
                <mxCell id="467" value="発送済" style="shape=partialRectangle;html=1;whiteSpace=wrap;connectable=0;overflow=hidden;fillColor=none;top=0;left=0;bottom=0;right=0;pointerEvents=1;fontSize=9;" vertex="1" parent="464">
                    <mxGeometry x="160" width="60" height="38" as="geometry">
                        <mxRectangle width="60" height="38" as="alternateBounds"/>
                    </mxGeometry>
                </mxCell>
                <mxCell id="468" value="詳細" style="shape=partialRectangle;html=1;whiteSpace=wrap;connectable=0;overflow=hidden;fillColor=none;top=0;left=0;bottom=0;right=0;pointerEvents=1;fontSize=9;" vertex="1" parent="464">
                    <mxGeometry x="220" width="30" height="38" as="geometry">
                        <mxRectangle width="30" height="38" as="alternateBounds"/>
                    </mxGeometry>
                </mxCell>
                <mxCell id="469" value="取り消し申請" style="shape=partialRectangle;html=1;whiteSpace=wrap;connectable=0;overflow=hidden;fillColor=none;top=0;left=0;bottom=0;right=0;pointerEvents=1;fontSize=9;" vertex="1" parent="464">
                    <mxGeometry x="250" width="30" height="38" as="geometry">
                        <mxRectangle width="30" height="38" as="alternateBounds"/>
                    </mxGeometry>
                </mxCell>
                <mxCell id="470" value="" style="shape=partialRectangle;collapsible=0;dropTarget=0;pointerEvents=0;fillColor=none;top=0;left=0;bottom=0;right=0;points=[[0,0.5],[1,0.5]];portConstraint=eastwest;fontSize=9;" vertex="1" parent="457">
                    <mxGeometry y="106" width="280" height="38" as="geometry"/>
                </mxCell>
                <mxCell id="471" value="6/12" style="shape=partialRectangle;html=1;whiteSpace=wrap;connectable=0;overflow=hidden;fillColor=none;top=0;left=0;bottom=0;right=0;pointerEvents=1;fontSize=9;" vertex="1" parent="470">
                    <mxGeometry width="30" height="38" as="geometry">
                        <mxRectangle width="30" height="38" as="alternateBounds"/>
                    </mxGeometry>
                </mxCell>
                <mxCell id="472" value="" style="shape=partialRectangle;html=1;whiteSpace=wrap;connectable=0;overflow=hidden;fillColor=none;top=0;left=0;bottom=0;right=0;pointerEvents=1;fontSize=9;" vertex="1" parent="470">
                    <mxGeometry x="30" width="130" height="38" as="geometry">
                        <mxRectangle width="130" height="38" as="alternateBounds"/>
                    </mxGeometry>
                </mxCell>
                <mxCell id="473" value="店舗確認中" style="shape=partialRectangle;html=1;whiteSpace=wrap;connectable=0;overflow=hidden;fillColor=none;top=0;left=0;bottom=0;right=0;pointerEvents=1;fontSize=9;" vertex="1" parent="470">
                    <mxGeometry x="160" width="60" height="38" as="geometry">
                        <mxRectangle width="60" height="38" as="alternateBounds"/>
                    </mxGeometry>
                </mxCell>
                <mxCell id="474" value="詳細" style="shape=partialRectangle;html=1;whiteSpace=wrap;connectable=0;overflow=hidden;fillColor=none;top=0;left=0;bottom=0;right=0;pointerEvents=1;fontSize=9;" vertex="1" parent="470">
                    <mxGeometry x="220" width="30" height="38" as="geometry">
                        <mxRectangle width="30" height="38" as="alternateBounds"/>
                    </mxGeometry>
                </mxCell>
                <mxCell id="475" value="取り消し申請" style="shape=partialRectangle;html=1;whiteSpace=wrap;connectable=0;overflow=hidden;fillColor=none;top=0;left=0;bottom=0;right=0;pointerEvents=1;fontSize=9;" vertex="1" parent="470">
                    <mxGeometry x="250" width="30" height="38" as="geometry">
                        <mxRectangle width="30" height="38" as="alternateBounds"/>
                    </mxGeometry>
                </mxCell>
                <mxCell id="476" value="" style="shape=partialRectangle;collapsible=0;dropTarget=0;pointerEvents=0;fillColor=none;top=0;left=0;bottom=0;right=0;points=[[0,0.5],[1,0.5]];portConstraint=eastwest;fontSize=9;" vertex="1" parent="457">
                    <mxGeometry y="144" width="280" height="38" as="geometry"/>
                </mxCell>
                <mxCell id="477" value="6/13" style="shape=partialRectangle;html=1;whiteSpace=wrap;connectable=0;overflow=hidden;fillColor=none;top=0;left=0;bottom=0;right=0;pointerEvents=1;fontSize=9;" vertex="1" parent="476">
                    <mxGeometry width="30" height="38" as="geometry">
                        <mxRectangle width="30" height="38" as="alternateBounds"/>
                    </mxGeometry>
                </mxCell>
                <mxCell id="478" value="" style="shape=partialRectangle;html=1;whiteSpace=wrap;connectable=0;overflow=hidden;fillColor=none;top=0;left=0;bottom=0;right=0;pointerEvents=1;fontSize=9;" vertex="1" parent="476">
                    <mxGeometry x="30" width="130" height="38" as="geometry">
                        <mxRectangle width="130" height="38" as="alternateBounds"/>
                    </mxGeometry>
                </mxCell>
                <mxCell id="479" value="注文済" style="shape=partialRectangle;html=1;whiteSpace=wrap;connectable=0;overflow=hidden;fillColor=none;top=0;left=0;bottom=0;right=0;pointerEvents=1;fontSize=9;" vertex="1" parent="476">
                    <mxGeometry x="160" width="60" height="38" as="geometry">
                        <mxRectangle width="60" height="38" as="alternateBounds"/>
                    </mxGeometry>
                </mxCell>
                <mxCell id="480" value="詳細" style="shape=partialRectangle;html=1;whiteSpace=wrap;connectable=0;overflow=hidden;fillColor=none;top=0;left=0;bottom=0;right=0;pointerEvents=1;fontSize=9;" vertex="1" parent="476">
                    <mxGeometry x="220" width="30" height="38" as="geometry">
                        <mxRectangle width="30" height="38" as="alternateBounds"/>
                    </mxGeometry>
                </mxCell>
                <mxCell id="481" value="取り消し申請" style="shape=partialRectangle;html=1;whiteSpace=wrap;connectable=0;overflow=hidden;fillColor=none;top=0;left=0;bottom=0;right=0;pointerEvents=1;fontSize=9;" vertex="1" parent="476">
                    <mxGeometry x="250" width="30" height="38" as="geometry">
                        <mxRectangle width="30" height="38" as="alternateBounds"/>
                    </mxGeometry>
                </mxCell>
                <mxCell id="482" value="" style="shape=partialRectangle;collapsible=0;dropTarget=0;pointerEvents=0;fillColor=none;top=0;left=0;bottom=0;right=0;points=[[0,0.5],[1,0.5]];portConstraint=eastwest;fontSize=9;" vertex="1" parent="457">
                    <mxGeometry y="182" width="280" height="38" as="geometry"/>
                </mxCell>
                <mxCell id="483" value="" style="shape=partialRectangle;html=1;whiteSpace=wrap;connectable=0;overflow=hidden;fillColor=none;top=0;left=0;bottom=0;right=0;pointerEvents=1;fontSize=9;" vertex="1" parent="482">
                    <mxGeometry width="30" height="38" as="geometry">
                        <mxRectangle width="30" height="38" as="alternateBounds"/>
                    </mxGeometry>
                </mxCell>
                <mxCell id="484" value="" style="shape=partialRectangle;html=1;whiteSpace=wrap;connectable=0;overflow=hidden;fillColor=none;top=0;left=0;bottom=0;right=0;pointerEvents=1;fontSize=9;" vertex="1" parent="482">
                    <mxGeometry x="30" width="130" height="38" as="geometry">
                        <mxRectangle width="130" height="38" as="alternateBounds"/>
                    </mxGeometry>
                </mxCell>
                <mxCell id="485" value="" style="shape=partialRectangle;html=1;whiteSpace=wrap;connectable=0;overflow=hidden;fillColor=none;top=0;left=0;bottom=0;right=0;pointerEvents=1;fontSize=9;" vertex="1" parent="482">
                    <mxGeometry x="160" width="60" height="38" as="geometry">
                        <mxRectangle width="60" height="38" as="alternateBounds"/>
                    </mxGeometry>
                </mxCell>
                <mxCell id="486" value="" style="shape=partialRectangle;html=1;whiteSpace=wrap;connectable=0;overflow=hidden;fillColor=none;top=0;left=0;bottom=0;right=0;pointerEvents=1;fontSize=9;" vertex="1" parent="482">
                    <mxGeometry x="220" width="30" height="38" as="geometry">
                        <mxRectangle width="30" height="38" as="alternateBounds"/>
                    </mxGeometry>
                </mxCell>
                <mxCell id="487" value="" style="shape=partialRectangle;html=1;whiteSpace=wrap;connectable=0;overflow=hidden;fillColor=none;top=0;left=0;bottom=0;right=0;pointerEvents=1;fontSize=9;" vertex="1" parent="482">
                    <mxGeometry x="250" width="30" height="38" as="geometry">
                        <mxRectangle width="30" height="38" as="alternateBounds"/>
                    </mxGeometry>
                </mxCell>
                <mxCell id="488" value="商品A×２、商品B×３" style="shape=partialRectangle;html=1;whiteSpace=wrap;connectable=0;overflow=hidden;fillColor=none;top=0;left=0;bottom=0;right=0;pointerEvents=1;fontSize=9;" vertex="1" parent="1">
                    <mxGeometry x="430" y="665" width="130" height="38" as="geometry">
                        <mxRectangle width="130" height="38" as="alternateBounds"/>
                    </mxGeometry>
                </mxCell>
                <mxCell id="489" value="商品A×２、商品B×３" style="shape=partialRectangle;html=1;whiteSpace=wrap;connectable=0;overflow=hidden;fillColor=none;top=0;left=0;bottom=0;right=0;pointerEvents=1;fontSize=9;" vertex="1" parent="1">
                    <mxGeometry x="430" y="703" width="130" height="38" as="geometry">
                        <mxRectangle width="130" height="38" as="alternateBounds"/>
                    </mxGeometry>
                </mxCell>
                <mxCell id="501" value="注文日：6月10日" style="text;html=1;resizable=0;autosize=1;align=center;verticalAlign=middle;points=[];fillColor=none;strokeColor=none;rounded=0;fontSize=9;" vertex="1" parent="1">
                    <mxGeometry x="882.5" y="593" width="80" height="20" as="geometry"/>
                </mxCell>
                <mxCell id="502" value="商品：商品A×２、商品B×３" style="text;html=1;resizable=0;autosize=1;align=center;verticalAlign=middle;points=[];fillColor=none;strokeColor=none;rounded=0;fontSize=9;" vertex="1" parent="1">
                    <mxGeometry x="857.5" y="613" width="130" height="20" as="geometry"/>
                </mxCell>
                <mxCell id="503" value="合計：9,800円" style="text;html=1;resizable=0;autosize=1;align=center;verticalAlign=middle;points=[];fillColor=none;strokeColor=none;rounded=0;fontSize=9;" vertex="1" parent="1">
                    <mxGeometry x="887.5" y="633" width="70" height="20" as="geometry"/>
                </mxCell>
                <mxCell id="504" value="配送先：東京都千代田区（千代田区倉庫）" style="text;html=1;resizable=0;autosize=1;align=center;verticalAlign=middle;points=[];fillColor=none;strokeColor=none;rounded=0;fontSize=9;" vertex="1" parent="1">
                    <mxGeometry x="827.5" y="650" width="190" height="20" as="geometry"/>
                </mxCell>
                <mxCell id="505" value="処理状況：発送済" style="text;html=1;resizable=0;autosize=1;align=center;verticalAlign=middle;points=[];fillColor=none;strokeColor=none;rounded=0;fontSize=9;" vertex="1" parent="1">
                    <mxGeometry x="877.5" y="670" width="90" height="20" as="geometry"/>
                </mxCell>
                <mxCell id="507" value="" style="group" vertex="1" connectable="0" parent="1">
                    <mxGeometry x="1169" y="520" width="280" height="40" as="geometry"/>
                </mxCell>
                <mxCell id="508" value="" style="rounded=0;whiteSpace=wrap;html=1;fontSize=26;" vertex="1" parent="507">
                    <mxGeometry width="280" height="40" as="geometry"/>
                </mxCell>
                <mxCell id="509" value="" style="group" vertex="1" connectable="0" parent="507">
                    <mxGeometry width="280" height="40" as="geometry"/>
                </mxCell>
                <mxCell id="510" value="" style="rounded=0;whiteSpace=wrap;html=1;fontSize=26;" vertex="1" parent="509">
                    <mxGeometry width="280" height="40" as="geometry"/>
                </mxCell>
                <mxCell id="511" value="&lt;div&gt;&lt;span style=&quot;font-size: x-small&quot;&gt;logo&lt;/span&gt;&lt;/div&gt;" style="ellipse;whiteSpace=wrap;html=1;fontSize=40;align=center;" vertex="1" parent="509">
                    <mxGeometry width="50" height="40" as="geometry"/>
                </mxCell>
                <mxCell id="512" value="&lt;font style=&quot;font-size: 7px&quot;&gt;発注履歴&lt;/font&gt;" style="rounded=1;whiteSpace=wrap;html=1;fontSize=7;" vertex="1" parent="509">
                    <mxGeometry x="150" y="10" width="40" height="20" as="geometry"/>
                </mxCell>
                <mxCell id="513" value="&lt;font style=&quot;font-size: 7px;&quot;&gt;管理&lt;/font&gt;" style="rounded=1;whiteSpace=wrap;html=1;fontSize=7;" vertex="1" parent="509">
                    <mxGeometry x="190" y="10" width="40" height="20" as="geometry"/>
                </mxCell>
                <mxCell id="514" value="&lt;font style=&quot;font-size: 7px;&quot;&gt;ログアウト&lt;/font&gt;" style="rounded=1;whiteSpace=wrap;html=1;fontSize=7;" vertex="1" parent="509">
                    <mxGeometry x="230" y="10" width="40" height="20" as="geometry"/>
                </mxCell>
                <mxCell id="515" value="&lt;span style=&quot;font-size: 7px;&quot;&gt;TOP&lt;/span&gt;" style="rounded=1;whiteSpace=wrap;html=1;fontSize=7;" vertex="1" parent="509">
                    <mxGeometry x="110" y="10" width="40" height="20" as="geometry"/>
                </mxCell>
            </root>
        </mxGraphModel>
    </diagram>
</mxfile>